<svg viewBox="0 0 135 15" xmlns="http://www.w3.org/2000/svg" xmlns:xlink="http://www.w3.org/1999/xlink" width="135.000000" height="15.000000" fill="none" customFrame="#000000">
	<g id="Group 1300">
		<circle id="Ellipse 172" cx="67.5" cy="7.5" r="7.5" fill="rgb(221,224,228)" />
		<circle id="Ellipse 173" cx="97.5" cy="7.5" r="7.5" fill="rgb(221,224,228)" />
		<circle id="Ellipse 174" cx="127.5" cy="7.5" r="7.5" fill="rgb(221,224,228)" />
		<path id="Union" d="M7.44279 14.9998C7.46184 14.9999 7.48091 15 7.5 15C7.51909 15 7.53816 14.9999 7.55721 14.9998L37.0841 14.9998L37.0841 14.9887C37.2218 14.9962 37.3604 15 37.5 15C41.6421 15 45 11.6421 45 7.5C45 3.35786 41.6421 0 37.5 0C37.3604 0 37.2218 0.00381182 37.0841 0.011337L37.0841 0L6.9469 0L6.9469 0.0200851C3.06303 0.30319 0 3.54389 0 7.5C0 11.4561 3.06303 14.6968 6.9469 14.9799L6.9469 14.9998L7.44279 14.9998Z" fill="rgb(220,112,0)" fill-rule="evenodd" />
	</g>
</svg>
