<svg viewBox="0 0 12 12" xmlns="http://www.w3.org/2000/svg" xmlns:xlink="http://www.w3.org/1999/xlink" width="12.000000" height="12.000000" fill="none">
	<rect id="arrow 6" width="12.000000" height="12.000000" x="0.000000" y="0.000000" fill="rgb(255,255,255)" fill-opacity="0" transform="matrix(-1,-1.61329e-16,1.61329e-16,-1,12,12)" />
	<g id="Group">
		<g id="Group">
			<path id="Vector" d="M11.2787 4.30336C11.2296 4.29539 11.1799 4.29172 11.1302 4.29236L2.66446 4.29236L2.84906 4.2065C3.0295 4.1211 3.19365 4.00487 3.33417 3.86306L5.70818 1.48905C6.02084 1.19058 6.07338 0.710443 5.83267 0.351416C5.55253 -0.0311675 5.01529 -0.114236 4.63268 0.165907C4.60177 0.188552 4.57239 0.213237 4.54478 0.239799L0.251816 4.53277C-0.0836792 4.86789 -0.0839744 5.41151 0.251145 5.74701C0.25136 5.74722 0.251602 5.74746 0.251816 5.74768L4.54478 10.0406C4.88055 10.3755 5.42417 10.3747 5.75902 10.039C5.78537 10.0125 5.80998 9.98441 5.83267 9.95479C6.07338 9.59576 6.02084 9.11562 5.70818 8.81715L3.33846 6.43885C3.21249 6.31274 3.06765 6.207 2.90916 6.12546L2.65159 6.00955L11.083 6.00955C11.5216 6.02584 11.9064 5.71945 11.9888 5.28833C12.0647 4.82026 11.7468 4.37929 11.2787 4.30336Z" fill="rgb(255,255,255)" fill-rule="nonzero" transform="matrix(-1,-1.61329e-16,1.61329e-16,-1,12,12.2886)" />
		</g>
	</g>
</svg>
