<svg viewBox="0 0 1441.51 858.564" xmlns="http://www.w3.org/2000/svg" xmlns:xlink="http://www.w3.org/1999/xlink" width="1441.509521" height="858.564087" fill="none" customFrame="#000000">
	<g id="Сочетание 1">
		<rect id="Rectangle 123" width="1440.000000" height="858.000000" x="0.320312" y="0.334595" fill="rgb(28,20,15)" />
		<path id="Vector 4" d="M0.320312 691.918C29.2543 667.775 78.9761 632.493 138.245 616.492C205.82 598.249 322.983 585.213 371.492 659.45C395.453 696.119 369.448 737.749 398.32 769.749C427.011 801.548 475.261 781.112 511.82 798.249C543.82 813.249 552.32 839.749 567.32 858.249" stroke="rgb(228.438,228.438,228.438)" stroke-width="1" />
		<path id="Vector 3" d="M393.32 0.334595C421.739 31.885 495.927 93.4833 565.328 87.4737C652.08 79.9617 711.32 55.3346 785.697 78.4593C831.997 92.8545 827.577 137.554 869.457 170.106C911.337 202.658 1093.82 123.531 1093.82 123.531C1093.82 123.531 1222.45 65.9393 1234.91 123.531C1247.38 181.123 1196.02 249.733 1219.46 263.755C1238.2 274.973 1375.18 223.691 1441.32 196.648" stroke="rgb(225,122,14)" stroke-opacity="0.239999995" stroke-width="1" />
	</g>
</svg>
