<?xml version="1.0" encoding="UTF-8" standalone="no"?>
<svg
   viewBox="0 0 60 60"
   width="60.000000"
   height="60.000000"
   fill="none"
   customFrame="#000000"
   version="1.1"
   id="svg1"
   sodipodi:docname="btnleft.svg"
   inkscape:version="1.4 (86a8ad7, 2024-10-11)"
   xmlns:inkscape="http://www.inkscape.org/namespaces/inkscape"
   xmlns:sodipodi="http://sodipodi.sourceforge.net/DTD/sodipodi-0.dtd"
   xmlns="http://www.w3.org/2000/svg"
   xmlns:svg="http://www.w3.org/2000/svg">
  <sodipodi:namedview
     id="namedview1"
     pagecolor="#ffffff"
     bordercolor="#000000"
     borderopacity="0.25"
     inkscape:showpageshadow="2"
     inkscape:pageopacity="0.0"
     inkscape:pagecheckerboard="0"
     inkscape:deskcolor="#d1d1d1"
     inkscape:zoom="3.600352"
     inkscape:cx="56.522251"
     inkscape:cy="56.2445"
     inkscape:window-width="1440"
     inkscape:window-height="820"
     inkscape:window-x="-9"
     inkscape:window-y="74"
     inkscape:window-maximized="1"
     inkscape:current-layer="svg1" />
  <defs
     id="defs1">
    <clipPath
       id="clipPath_0">
      <rect
         width="30.000000"
         height="30.000000"
         x="15.000000"
         y="15.000000"
         fill="rgb(255,255,255)"
         id="rect1" />
    </clipPath>
    <filter
       id="filter_0"
       width="148"
       height="148"
       x="0"
       y="0"
       filterUnits="userSpaceOnUse"
       customEffect="url(#pixso_custom_effect_0)"
       color-interpolation-filters="sRGB">
      <feFlood
         flood-opacity="0"
         result="BackgroundImageFix"
         id="feFlood1" />
      <feOffset
         dx="0.000000"
         dy="14.000000"
         in="SourceAlpha"
         id="feOffset1" />
      <feGaussianBlur
         stdDeviation="14.666667"
         id="feGaussianBlur1" />
      <feColorMatrix
         type="matrix"
         values="0 0 0 0 0.0561111 0 0 0 0 0.0777333 0 0 0 0 0.133333 0 0 0 0.08 0 "
         id="feColorMatrix1" />
      <feBlend
         result="effect_dropShadow_1"
         in2="BackgroundImageFix"
         mode="normal"
         id="feBlend1" />
      <feBlend
         result="shape"
         in="SourceGraphic"
         in2="effect_dropShadow_1"
         mode="normal"
         id="feBlend2" />
    </filter>
    <clipPath
       id="clipPath_0-4">
      <rect
         width="30"
         height="30"
         x="0"
         y="0"
         fill="#ffffff"
         transform="matrix(-1,0,0,1,89,45)"
         id="rect2" />
    </clipPath>
  </defs>
  <g
     id="Button/nonact/left">
    <circle
       id="Ellipse 169"
       cx="30"
       cy="30"
       r="29"
       stroke="rgb(220,112,0)"
       stroke-width="2" />
    <g
       id="g1"
       clip-path="url(#clipPath_0)"
       customFrame="url(#clipPath_0)">
      <rect
         id="eva:arrow-back-fill"
         width="30.000000"
         height="30.000000"
         x="15.000000"
         y="15.000000"
         fill="rgb(255,255,255)"
         fill-opacity="0" />
      <path
         id="Vector"
         d="M38.75 28.7501L23.925 28.7501L28.4625 23.3001C28.6747 23.0448 28.7768 22.7157 28.7463 22.3852C28.7158 22.0547 28.5553 21.7498 28.3 21.5376C28.0447 21.3254 27.7156 21.2234 27.3851 21.2538C27.0546 21.2843 26.7497 21.4448 26.5375 21.7001L20.2875 29.2001C20.2455 29.2598 20.2078 29.3224 20.175 29.3876C20.175 29.4501 20.175 29.4876 20.0875 29.5501C20.0308 29.6934 20.0012 29.846 20 30.0001C20.0012 30.1542 20.0308 30.3068 20.0875 30.4501C20.0875 30.5126 20.0875 30.5501 20.175 30.6126C20.2078 30.6778 20.2455 30.7404 20.2875 30.8001L26.5375 38.3001C26.655 38.4412 26.8022 38.5547 26.9686 38.6325C27.1349 38.7102 27.3164 38.7504 27.5 38.7501C27.7921 38.7507 28.0751 38.649 28.3 38.4626C28.4266 38.3577 28.5312 38.2288 28.6079 38.0834C28.6846 37.9379 28.7318 37.7788 28.7469 37.6151C28.762 37.4513 28.7447 37.2863 28.6959 37.1292C28.6471 36.9722 28.5678 36.8264 28.4625 36.7001L23.925 31.2501L38.75 31.2501C39.0815 31.2501 39.3995 31.1184 39.6339 30.884C39.8683 30.6496 40 30.3316 40 30.0001C40 29.6686 39.8683 29.3506 39.6339 29.1162C39.3995 28.8818 39.0815 28.7501 38.75 28.7501Z"
         fill="rgb(220,112,0)"
         fill-rule="nonzero" />
    </g>
  </g>
</svg>
