<?xml version="1.0" encoding="UTF-8" standalone="no"?>
<svg
   viewBox="0 0 60 60"
   width="60.000000"
   height="60.000000"
   fill="none"
   customFrame="#000000"
   version="1.1"
   id="svg1"
   sodipodi:docname="btnright.svg"
   inkscape:version="1.4 (86a8ad7, 2024-10-11)"
   xmlns:inkscape="http://www.inkscape.org/namespaces/inkscape"
   xmlns:sodipodi="http://sodipodi.sourceforge.net/DTD/sodipodi-0.dtd"
   xmlns="http://www.w3.org/2000/svg"
   xmlns:svg="http://www.w3.org/2000/svg">
  <sodipodi:namedview
     id="namedview1"
     pagecolor="#ffffff"
     bordercolor="#000000"
     borderopacity="0.25"
     inkscape:showpageshadow="2"
     inkscape:pageopacity="0.0"
     inkscape:pagecheckerboard="0"
     inkscape:deskcolor="#d1d1d1"
     inkscape:zoom="3.600352"
     inkscape:cx="56.522251"
     inkscape:cy="56.2445"
     inkscape:window-width="1440"
     inkscape:window-height="820"
     inkscape:window-x="-9"
     inkscape:window-y="74"
     inkscape:window-maximized="1"
     inkscape:current-layer="svg1" />
  <defs
     id="defs1">
    <clipPath
       id="clipPath_0">
      <rect
         width="30.000000"
         height="30.000000"
         x="15.000000"
         y="15.000000"
         fill="rgb(255,255,255)"
         id="rect1" />
    </clipPath>
    <filter
       id="filter_0"
       width="148"
       height="148"
       x="0"
       y="0"
       filterUnits="userSpaceOnUse"
       customEffect="url(#pixso_custom_effect_0)"
       color-interpolation-filters="sRGB">
      <feFlood
         flood-opacity="0"
         result="BackgroundImageFix"
         id="feFlood1" />
      <feOffset
         dx="0.000000"
         dy="14.000000"
         in="SourceAlpha"
         id="feOffset1" />
      <feGaussianBlur
         stdDeviation="14.666667"
         id="feGaussianBlur1" />
      <feColorMatrix
         type="matrix"
         values="0 0 0 0 0.0561111 0 0 0 0 0.0777333 0 0 0 0 0.133333 0 0 0 0.08 0 "
         id="feColorMatrix1" />
      <feBlend
         result="effect_dropShadow_1"
         in2="BackgroundImageFix"
         mode="normal"
         id="feBlend1" />
      <feBlend
         result="shape"
         in="SourceGraphic"
         in2="effect_dropShadow_1"
         mode="normal"
         id="feBlend2" />
    </filter>
    <clipPath
       id="clipPath_0-4">
      <rect
         width="30"
         height="30"
         x="0"
         y="0"
         fill="#ffffff"
         transform="matrix(-1,0,0,1,89,45)"
         id="rect2" />
    </clipPath>
  </defs>
  <g
     id="Button/act/right"
     transform="translate(-44,-30)">
    <g
       id="g4"
       style="display:inline"
       inkscape:label="g2">
      <circle
         id="Ellipse 168"
         cx="74"
         cy="60"
         r="30"
         fill="#dc7000" />
      <circle
         id="circle2"
         cx="74"
         cy="60"
         r="29"
         stroke="#dc7000"
         stroke-width="2" />
    </g>
    <g
       id="g3"
       clip-path="url(#clipPath_0-4)"
       customFrame="url(#clipPath_0)">
      <rect
         id="eva:arrow-back-fill-2"
         width="30"
         height="30"
         x="0"
         y="0"
         fill="#ffffff"
         fill-opacity="0"
         transform="matrix(-1,0,0,1,89,45)" />
      <path
         id="Vector-4"
         d="M 18.75,7.50156 H 3.925 L 8.4625,2.05157 C 8.67467,1.79629 8.77675,1.46719 8.74628,1.13666 8.7158,0.806128 8.55527,0.501238 8.3,0.289065 8.04473,0.0768921 7.71563,-0.0251853 7.3851,0.00528938 7.05456,0.035764 6.74967,0.196295 6.5375,0.451565 L 0.2875,7.95156 C 0.245451,8.01122 0.207849,8.07389 0.175,8.13907 c 0,0.0625 0,0.1 -0.0874998,0.1625 C 0.0308421,8.44489 0.0011764,8.59745 0,8.75156 c 0.0011764,0.15412 0.0308421,0.30668 0.0875002,0.45 0,0.0625 -4e-7,0.10001 0.0874998,0.16251 0.032849,0.06517 0.070451,0.12784 0.1125,0.1875 l 6.25,7.50003 c 0.11753,0.1411 0.2647,0.2545 0.43106,0.3323 0.16635,0.0778 0.3478,0.118 0.53144,0.1177 0.29207,5e-4 0.57511,-0.1012 0.8,-0.2875 0.12657,-0.105 0.2312,-0.2338 0.30789,-0.3793 C 8.68458,16.6894 8.73183,16.5303 8.74692,16.3665 8.76202,16.2028 8.74466,16.0377 8.69586,15.8807 8.64705,15.7237 8.56775,15.5779 8.4625,15.4516 L 3.925,10.0016 H 18.75 c 0.3315,0 0.6495,-0.13173 0.8839,-0.36615 C 19.8683,9.40103 20,9.08309 20,8.75156 20,8.42004 19.8683,8.1021 19.6339,7.86768 19.3995,7.63326 19.0815,7.50156 18.75,7.50156 Z"
         fill="#ffffff"
         fill-rule="nonzero"
         transform="matrix(-1,0,0,1,84,51.2485)" />
    </g>
  </g>
</svg>
