<svg viewBox="0 0 196 154" xmlns="http://www.w3.org/2000/svg" xmlns:xlink="http://www.w3.org/1999/xlink" width="196.000000" height="154.000000" fill="none" customFrame="#000000">
	<g id="Group 21">
		<g id="Group 12">
			<circle id="Ellipse 3" cx="3.5" cy="3.5" r="3.5" fill="rgb(220,112,0)" fill-opacity="0.349999994" />
			<circle id="Ellipse 4" cx="24.5" cy="3.5" r="3.5" fill="rgb(220,112,0)" fill-opacity="0.349999994" />
			<circle id="Ellipse 5" cx="45.5" cy="3.5" r="3.5" fill="rgb(220,112,0)" fill-opacity="0.349999994" />
			<circle id="Ellipse 6" cx="66.5" cy="3.5" r="3.5" fill="rgb(220,112,0)" fill-opacity="0.349999994" />
			<circle id="Ellipse 7" cx="87.5" cy="3.5" r="3.5" fill="rgb(220,112,0)" fill-opacity="0.349999994" />
			<circle id="Ellipse 8" cx="108.5" cy="3.5" r="3.5" fill="rgb(220,112,0)" fill-opacity="0.349999994" />
			<circle id="Ellipse 9" cx="129.5" cy="3.5" r="3.5" fill="rgb(220,112,0)" fill-opacity="0.349999994" />
			<circle id="Ellipse 10" cx="150.5" cy="3.5" r="3.5" fill="rgb(220,112,0)" fill-opacity="0.349999994" />
			<circle id="Ellipse 11" cx="171.5" cy="3.5" r="3.5" fill="rgb(220,112,0)" fill-opacity="0.349999994" />
			<circle id="Ellipse 12" cx="192.5" cy="3.5" r="3.5" fill="rgb(220,112,0)" fill-opacity="0.349999994" />
		</g>
		<g id="Group 13">
			<circle id="Ellipse 3" cx="3.5" cy="24.5" r="3.5" fill="rgb(220,112,0)" fill-opacity="0.349999994" />
			<circle id="Ellipse 4" cx="24.5" cy="24.5" r="3.5" fill="rgb(220,112,0)" fill-opacity="0.349999994" />
			<circle id="Ellipse 5" cx="45.5" cy="24.5" r="3.5" fill="rgb(220,112,0)" fill-opacity="0.349999994" />
			<circle id="Ellipse 6" cx="66.5" cy="24.5" r="3.5" fill="rgb(220,112,0)" fill-opacity="0.349999994" />
			<circle id="Ellipse 7" cx="87.5" cy="24.5" r="3.5" fill="rgb(220,112,0)" fill-opacity="0.349999994" />
			<circle id="Ellipse 8" cx="108.5" cy="24.5" r="3.5" fill="rgb(220,112,0)" fill-opacity="0.349999994" />
			<circle id="Ellipse 9" cx="129.5" cy="24.5" r="3.5" fill="rgb(220,112,0)" fill-opacity="0.349999994" />
			<circle id="Ellipse 10" cx="150.5" cy="24.5" r="3.5" fill="rgb(220,112,0)" fill-opacity="0.349999994" />
			<circle id="Ellipse 11" cx="171.5" cy="24.5" r="3.5" fill="rgb(220,112,0)" fill-opacity="0.349999994" />
			<circle id="Ellipse 12" cx="192.5" cy="24.5" r="3.5" fill="rgb(220,112,0)" fill-opacity="0.349999994" />
		</g>
		<g id="Group 14">
			<circle id="Ellipse 3" cx="3.5" cy="45.5" r="3.5" fill="rgb(220,112,0)" fill-opacity="0.349999994" />
			<circle id="Ellipse 4" cx="24.5" cy="45.5" r="3.5" fill="rgb(220,112,0)" fill-opacity="0.349999994" />
			<circle id="Ellipse 5" cx="45.5" cy="45.5" r="3.5" fill="rgb(220,112,0)" fill-opacity="0.349999994" />
			<circle id="Ellipse 6" cx="66.5" cy="45.5" r="3.5" fill="rgb(220,112,0)" fill-opacity="0.349999994" />
			<circle id="Ellipse 7" cx="87.5" cy="45.5" r="3.5" fill="rgb(220,112,0)" fill-opacity="0.349999994" />
			<circle id="Ellipse 8" cx="108.5" cy="45.5" r="3.5" fill="rgb(220,112,0)" fill-opacity="0.349999994" />
			<circle id="Ellipse 9" cx="129.5" cy="45.5" r="3.5" fill="rgb(220,112,0)" fill-opacity="0.349999994" />
			<circle id="Ellipse 10" cx="150.5" cy="45.5" r="3.5" fill="rgb(220,112,0)" fill-opacity="0.349999994" />
			<circle id="Ellipse 11" cx="171.5" cy="45.5" r="3.5" fill="rgb(220,112,0)" fill-opacity="0.349999994" />
			<circle id="Ellipse 12" cx="192.5" cy="45.5" r="3.5" fill="rgb(220,112,0)" fill-opacity="0.349999994" />
		</g>
		<g id="Group 15">
			<circle id="Ellipse 3" cx="3.5" cy="66.5" r="3.5" fill="rgb(220,112,0)" fill-opacity="0.349999994" />
			<circle id="Ellipse 4" cx="24.5" cy="66.5" r="3.5" fill="rgb(220,112,0)" fill-opacity="0.349999994" />
			<circle id="Ellipse 5" cx="45.5" cy="66.5" r="3.5" fill="rgb(220,112,0)" fill-opacity="0.349999994" />
			<circle id="Ellipse 6" cx="66.5" cy="66.5" r="3.5" fill="rgb(220,112,0)" fill-opacity="0.349999994" />
			<circle id="Ellipse 7" cx="87.5" cy="66.5" r="3.5" fill="rgb(220,112,0)" fill-opacity="0.349999994" />
			<circle id="Ellipse 8" cx="108.5" cy="66.5" r="3.5" fill="rgb(220,112,0)" fill-opacity="0.349999994" />
			<circle id="Ellipse 9" cx="129.5" cy="66.5" r="3.5" fill="rgb(220,112,0)" fill-opacity="0.349999994" />
			<circle id="Ellipse 10" cx="150.5" cy="66.5" r="3.5" fill="rgb(220,112,0)" fill-opacity="0.349999994" />
			<circle id="Ellipse 11" cx="171.5" cy="66.5" r="3.5" fill="rgb(220,112,0)" fill-opacity="0.349999994" />
			<circle id="Ellipse 12" cx="192.5" cy="66.5" r="3.5" fill="rgb(220,112,0)" fill-opacity="0.349999994" />
		</g>
		<g id="Group 16">
			<circle id="Ellipse 3" cx="3.5" cy="87.5" r="3.5" fill="rgb(220,112,0)" fill-opacity="0.349999994" />
			<circle id="Ellipse 4" cx="24.5" cy="87.5" r="3.5" fill="rgb(220,112,0)" fill-opacity="0.349999994" />
			<circle id="Ellipse 5" cx="45.5" cy="87.5" r="3.5" fill="rgb(220,112,0)" fill-opacity="0.349999994" />
			<circle id="Ellipse 6" cx="66.5" cy="87.5" r="3.5" fill="rgb(220,112,0)" fill-opacity="0.349999994" />
			<circle id="Ellipse 7" cx="87.5" cy="87.5" r="3.5" fill="rgb(220,112,0)" fill-opacity="0.349999994" />
			<circle id="Ellipse 8" cx="108.5" cy="87.5" r="3.5" fill="rgb(220,112,0)" fill-opacity="0.349999994" />
			<circle id="Ellipse 9" cx="129.5" cy="87.5" r="3.5" fill="rgb(220,112,0)" fill-opacity="0.349999994" />
			<circle id="Ellipse 10" cx="150.5" cy="87.5" r="3.5" fill="rgb(220,112,0)" fill-opacity="0.349999994" />
			<circle id="Ellipse 11" cx="171.5" cy="87.5" r="3.5" fill="rgb(220,112,0)" fill-opacity="0.349999994" />
			<circle id="Ellipse 12" cx="192.5" cy="87.5" r="3.5" fill="rgb(220,112,0)" fill-opacity="0.349999994" />
		</g>
		<g id="Group 17">
			<circle id="Ellipse 3" cx="3.5" cy="108.5" r="3.5" fill="rgb(220,112,0)" fill-opacity="0.349999994" />
			<circle id="Ellipse 4" cx="24.5" cy="108.5" r="3.5" fill="rgb(220,112,0)" fill-opacity="0.349999994" />
			<circle id="Ellipse 5" cx="45.5" cy="108.5" r="3.5" fill="rgb(220,112,0)" fill-opacity="0.349999994" />
			<circle id="Ellipse 6" cx="66.5" cy="108.5" r="3.5" fill="rgb(220,112,0)" fill-opacity="0.349999994" />
			<circle id="Ellipse 7" cx="87.5" cy="108.5" r="3.5" fill="rgb(220,112,0)" fill-opacity="0.349999994" />
			<circle id="Ellipse 8" cx="108.5" cy="108.5" r="3.5" fill="rgb(220,112,0)" fill-opacity="0.349999994" />
			<circle id="Ellipse 9" cx="129.5" cy="108.5" r="3.5" fill="rgb(220,112,0)" fill-opacity="0.349999994" />
			<circle id="Ellipse 10" cx="150.5" cy="108.5" r="3.5" fill="rgb(220,112,0)" fill-opacity="0.349999994" />
			<circle id="Ellipse 11" cx="171.5" cy="108.5" r="3.5" fill="rgb(220,112,0)" fill-opacity="0.349999994" />
			<circle id="Ellipse 12" cx="192.5" cy="108.5" r="3.5" fill="rgb(220,112,0)" fill-opacity="0.349999994" />
		</g>
		<g id="Group 18">
			<circle id="Ellipse 3" cx="3.5" cy="129.5" r="3.5" fill="rgb(220,112,0)" fill-opacity="0.349999994" />
			<circle id="Ellipse 4" cx="24.5" cy="129.5" r="3.5" fill="rgb(220,112,0)" fill-opacity="0.349999994" />
			<circle id="Ellipse 5" cx="45.5" cy="129.5" r="3.5" fill="rgb(220,112,0)" fill-opacity="0.349999994" />
			<circle id="Ellipse 6" cx="66.5" cy="129.5" r="3.5" fill="rgb(220,112,0)" fill-opacity="0.349999994" />
			<circle id="Ellipse 7" cx="87.5" cy="129.5" r="3.5" fill="rgb(220,112,0)" fill-opacity="0.349999994" />
			<circle id="Ellipse 8" cx="108.5" cy="129.5" r="3.5" fill="rgb(220,112,0)" fill-opacity="0.349999994" />
			<circle id="Ellipse 9" cx="129.5" cy="129.5" r="3.5" fill="rgb(220,112,0)" fill-opacity="0.349999994" />
			<circle id="Ellipse 10" cx="150.5" cy="129.5" r="3.5" fill="rgb(220,112,0)" fill-opacity="0.349999994" />
			<circle id="Ellipse 11" cx="171.5" cy="129.5" r="3.5" fill="rgb(220,112,0)" fill-opacity="0.349999994" />
			<circle id="Ellipse 12" cx="192.5" cy="129.5" r="3.5" fill="rgb(220,112,0)" fill-opacity="0.349999994" />
		</g>
		<g id="Group 19">
			<circle id="Ellipse 3" cx="3.5" cy="129.5" r="3.5" fill="rgb(220,112,0)" fill-opacity="0.349999994" />
			<circle id="Ellipse 4" cx="24.5" cy="129.5" r="3.5" fill="rgb(220,112,0)" fill-opacity="0.349999994" />
			<circle id="Ellipse 5" cx="45.5" cy="129.5" r="3.5" fill="rgb(220,112,0)" fill-opacity="0.349999994" />
			<circle id="Ellipse 6" cx="66.5" cy="129.5" r="3.5" fill="rgb(220,112,0)" fill-opacity="0.349999994" />
			<circle id="Ellipse 7" cx="87.5" cy="129.5" r="3.5" fill="rgb(220,112,0)" fill-opacity="0.349999994" />
			<circle id="Ellipse 8" cx="108.5" cy="129.5" r="3.5" fill="rgb(220,112,0)" fill-opacity="0.349999994" />
			<circle id="Ellipse 9" cx="129.5" cy="129.5" r="3.5" fill="rgb(220,112,0)" fill-opacity="0.349999994" />
			<circle id="Ellipse 10" cx="150.5" cy="129.5" r="3.5" fill="rgb(220,112,0)" fill-opacity="0.349999994" />
			<circle id="Ellipse 11" cx="171.5" cy="129.5" r="3.5" fill="rgb(220,112,0)" fill-opacity="0.349999994" />
			<circle id="Ellipse 12" cx="192.5" cy="129.5" r="3.5" fill="rgb(220,112,0)" fill-opacity="0.349999994" />
		</g>
		<g id="Group 20">
			<circle id="Ellipse 3" cx="3.5" cy="150.5" r="3.5" fill="rgb(220,112,0)" fill-opacity="0.349999994" />
			<circle id="Ellipse 4" cx="24.5" cy="150.5" r="3.5" fill="rgb(220,112,0)" fill-opacity="0.349999994" />
			<circle id="Ellipse 5" cx="45.5" cy="150.5" r="3.5" fill="rgb(220,112,0)" fill-opacity="0.349999994" />
			<circle id="Ellipse 6" cx="66.5" cy="150.5" r="3.5" fill="rgb(220,112,0)" fill-opacity="0.349999994" />
			<circle id="Ellipse 7" cx="87.5" cy="150.5" r="3.5" fill="rgb(220,112,0)" fill-opacity="0.349999994" />
			<circle id="Ellipse 8" cx="108.5" cy="150.5" r="3.5" fill="rgb(220,112,0)" fill-opacity="0.349999994" />
			<circle id="Ellipse 9" cx="129.5" cy="150.5" r="3.5" fill="rgb(220,112,0)" fill-opacity="0.349999994" />
			<circle id="Ellipse 10" cx="150.5" cy="150.5" r="3.5" fill="rgb(220,112,0)" fill-opacity="0.349999994" />
			<circle id="Ellipse 11" cx="171.5" cy="150.5" r="3.5" fill="rgb(220,112,0)" fill-opacity="0.349999994" />
			<circle id="Ellipse 12" cx="192.5" cy="150.5" r="3.5" fill="rgb(220,112,0)" fill-opacity="0.349999994" />
		</g>
	</g>
</svg>
