<svg viewBox="0 0 65 65" xmlns="http://www.w3.org/2000/svg" xmlns:xlink="http://www.w3.org/1999/xlink" width="65.000000" height="65.000000" fill="none" customFrame="#000000">
	<defs>
		<clipPath id="clipPath_4">
			<rect width="29.745762" height="29.745762" x="17.627197" y="17.627197" fill="rgb(255,255,255)" />
		</clipPath>
	</defs>
	<g id="Group 48">
		<circle id="Ellipse 13" cx="32.5" cy="32.5" r="32.5" fill="rgb(255,255,255)" />
		<g id="smartphone (2) 1" clip-path="url(#clipPath_4)" customFrame="url(#clipPath_4)">
			<rect id="smartphone (2) 1" width="29.745762" height="29.745762" x="17.627197" y="17.627197" fill="rgb(255,255,255)" fill-opacity="0" />
			<g id="Group">
				<path id="Vector" d="M38.7441 17.6272L26.2559 17.6272C25.0521 17.6272 24.072 18.6073 24.072 19.811L24.072 45.1886C24.072 46.3928 25.0521 47.373 26.2559 47.373L38.7436 47.373C39.9478 47.373 40.928 46.3928 40.928 45.1891L40.928 19.811C40.928 18.6073 39.9478 17.6272 38.7441 17.6272ZM25.0635 21.5933L39.9364 21.5933L39.9364 40.4323L25.0635 40.4323L25.0635 21.5933ZM26.2559 18.6187L38.7436 18.6187C39.4015 18.6187 39.9364 19.1537 39.9364 19.811L39.9364 20.6018L25.0635 20.6018L25.0635 19.811C25.0635 19.1537 25.5985 18.6187 26.2559 18.6187ZM38.7441 46.3814L26.2559 46.3814C25.5985 46.3814 25.0635 45.8465 25.0635 45.1891L25.0635 41.4238L39.9364 41.4238L39.9364 45.1891C39.9364 45.8465 39.4015 46.3814 38.7441 46.3814Z" fill="rgb(220,112,0)" fill-rule="nonzero" />
				<path id="Vector" d="M32.4999 41.9194C31.4062 41.9194 30.5168 42.8088 30.5168 43.9025C30.5168 44.9961 31.4062 45.8855 32.4999 45.8855C33.5936 45.8855 34.4829 44.9961 34.4829 43.9025C34.4829 42.8088 33.5936 41.9194 32.4999 41.9194ZM32.4999 44.894C31.9531 44.894 31.5084 44.4493 31.5084 43.9025C31.5084 43.3557 31.9531 42.911 32.4999 42.911C33.0467 42.911 33.4914 43.3557 33.4914 43.9025C33.4914 44.4493 33.0467 44.894 32.4999 44.894Z" fill="rgb(220,112,0)" fill-rule="nonzero" />
				<path id="Vector" d="M30.517 20.106L32.5001 20.106C32.7742 20.106 32.9958 19.8844 32.9958 19.6103C32.9958 19.3361 32.7742 19.1145 32.5001 19.1145L30.517 19.1145C30.2428 19.1145 30.0212 19.3361 30.0212 19.6103C30.0212 19.8844 30.2428 20.106 30.517 20.106Z" fill="rgb(220,112,0)" fill-rule="nonzero" />
				<path id="Vector" d="M33.9872 20.106L34.483 20.106C34.7571 20.106 34.9787 19.8844 34.9787 19.6103C34.9787 19.3361 34.7571 19.1145 34.483 19.1145L33.9872 19.1145C33.7131 19.1145 33.4915 19.3361 33.4915 19.6103C33.4915 19.8844 33.7131 20.106 33.9872 20.106Z" fill="rgb(220,112,0)" fill-rule="nonzero" />
				<path id="Vector" d="M45.6933 19.8922C45.4995 19.6984 45.1861 19.6984 44.9923 19.8922C44.7985 20.0861 44.7985 20.3994 44.9923 20.5932C46.8445 22.4454 46.8445 25.4591 44.9923 27.3118C44.7985 27.5056 44.7985 27.819 44.9923 28.0128C45.089 28.1095 45.2159 28.1581 45.3428 28.1581C45.4697 28.1581 45.5966 28.1095 45.6933 28.0128C47.9322 25.7744 47.9322 22.1311 45.6933 19.8922Z" fill="rgb(220,112,0)" fill-rule="nonzero" />
				<path id="Vector" d="M43.6057 21.0206C43.4118 20.8268 43.0985 20.8268 42.9047 21.0206C42.7108 21.2145 42.7108 21.5278 42.9047 21.7216C43.5179 22.3349 43.8555 23.1519 43.8555 24.0215C43.8555 24.891 43.5179 25.7076 42.9047 26.3208C42.7108 26.5147 42.7108 26.828 42.9047 27.0218C43.0013 27.1185 43.1283 27.1671 43.2552 27.1671C43.3821 27.1671 43.509 27.1185 43.6057 27.0218C44.4063 26.2217 44.8471 25.1558 44.8471 24.0215C44.8471 22.8872 44.4068 21.8208 43.6057 21.0206Z" fill="rgb(220,112,0)" fill-rule="nonzero" />
				<path id="Vector" d="M20.0078 20.5932C20.2017 20.3994 20.2017 20.0861 20.0078 19.8922C19.814 19.6984 19.5007 19.6984 19.3068 19.8922C17.068 22.1311 17.068 25.7739 19.3068 28.0128C19.4035 28.1095 19.5304 28.1581 19.6573 28.1581C19.7843 28.1581 19.9112 28.1095 20.0078 28.0128C20.2017 27.819 20.2017 27.5056 20.0078 27.3118C18.1552 25.4596 18.1552 22.4459 20.0078 20.5932Z" fill="rgb(220,112,0)" fill-rule="nonzero" />
				<path id="Vector" d="M22.0955 20.8837C21.9016 20.6898 21.5883 20.6898 21.3945 20.8837C20.5938 21.6838 20.1531 22.7497 20.1531 23.884C20.1531 25.0183 20.5938 26.0842 21.3945 26.8849C21.4911 26.9815 21.6181 27.0301 21.745 27.0301C21.8719 27.0301 21.9988 26.9815 22.0955 26.8849C22.2893 26.691 22.2893 26.3777 22.0955 26.1839C21.4822 25.5706 21.1446 24.7536 21.1446 23.884C21.1446 23.0145 21.4817 22.1979 22.0955 21.5847C22.2888 21.3913 22.2888 21.0775 22.0955 20.8837Z" fill="rgb(220,112,0)" fill-rule="nonzero" />
			</g>
		</g>
	</g>
</svg>
