<svg viewBox="0 0 65 65" xmlns="http://www.w3.org/2000/svg" xmlns:xlink="http://www.w3.org/1999/xlink" width="65.000000" height="65.000000" fill="none" customFrame="#000000">
	<defs>
		<clipPath id="clipPath_5">
			<rect width="30.847458" height="30.847458" x="16.525391" y="17.627197" fill="rgb(255,255,255)" />
		</clipPath>
	</defs>
	<g id="Group 51">
		<circle id="Ellipse 16" cx="32.5" cy="32.5" r="32.5" fill="rgb(255,255,255)" />
		<g id="vr-glasses 1" clip-path="url(#clipPath_5)" customFrame="url(#clipPath_5)">
			<rect id="vr-glasses 1" width="30.847458" height="30.847458" x="16.525391" y="17.627197" fill="rgb(255,255,255)" fill-opacity="0" />
			<g id="Group">
				<path id="Vector" d="M34.5671 40.9054C32.8811 41.468 31.0213 41.4679 29.3305 40.9052C28.8567 40.7474 28.3452 41.0037 28.1876 41.4772C28.03 41.9508 28.2861 42.4626 28.7597 42.6202C29.7894 42.9629 30.8703 43.1341 31.9509 43.1341C33.0316 43.1341 34.1119 42.9627 35.1392 42.6199C35.6126 42.4619 35.8684 41.9501 35.7103 41.4766C35.5524 41.0032 35.0406 40.7476 34.5671 40.9054Z" fill="rgb(220,112,0)" fill-rule="nonzero" />
				<path id="Vector" d="M42.4768 23.5315C42.0921 20.7727 39.7232 18.5952 36.7892 18.5952L35.7569 18.5952L35.7569 18.5309C35.7569 18.0318 35.3522 17.6272 34.8531 17.6272L29.0451 17.6272C28.546 17.6272 28.1414 18.0318 28.1414 18.5309L28.1414 18.5952L27.1091 18.5952C24.1997 18.5952 21.8275 20.7423 21.424 23.5309C19.73 23.9164 18.4614 25.4338 18.4614 27.2429L18.4614 34.9869C18.4614 37.4635 20.4787 38.4728 21.3951 38.6907C21.8089 44.266 26.4904 48.4747 31.9491 48.4747C37.5159 48.4747 42.0925 44.1545 42.5027 38.6909C44.878 38.127 45.4368 35.972 45.4368 34.987L45.4368 27.2429C45.4369 25.4347 44.1695 23.918 42.4768 23.5315ZM35.7569 20.4026L36.7891 20.4026C39.3462 20.4026 40.4025 22.4933 40.6221 23.4352L35.7569 23.4352L35.7569 20.4026ZM29.9489 19.4347L33.9494 19.4347L33.9494 23.4352L29.9489 23.4352L29.9489 19.4347ZM27.1091 20.4026L28.1414 20.4026L28.1414 23.4352L23.2798 23.4352C23.866 20.9797 26.0905 20.4026 27.1091 20.4026ZM31.9491 46.6672C27.4886 46.6672 23.6757 43.2881 23.2188 38.7946L27.6754 38.7946C28.7844 38.7946 29.8695 38.3452 30.6524 37.5617C30.6571 37.5571 30.6617 37.5524 30.6662 37.5476C31.0062 37.215 31.4727 37.0247 31.9491 37.0247C32.4257 37.0247 32.8921 37.2151 33.2321 37.5477C33.2366 37.5524 33.2412 37.5571 33.2459 37.5617C34.0288 38.3452 35.1139 38.7946 36.2229 38.7946L40.6791 38.7946C40.2253 43.2109 36.4833 46.6672 31.9491 46.6672ZM43.6294 34.987C43.6294 36.1054 42.7178 36.9872 41.6291 36.9872L36.2229 36.9872C35.5968 36.9872 34.9843 36.7365 34.5391 36.2986C34.5342 36.2935 34.5293 36.2885 34.5243 36.2834C33.8467 35.6058 32.9082 35.2172 31.9492 35.2172C30.9903 35.2172 30.0517 35.6058 29.3741 36.2834C29.3691 36.2884 29.3641 36.2935 29.3593 36.2986C28.914 36.7365 28.3015 36.9872 27.6754 36.9872L22.2691 36.9872C21.1839 36.9872 20.2688 36.1092 20.2688 34.987L20.2688 27.2429C20.2688 26.14 21.1662 25.2427 22.2691 25.2427L41.6291 25.2427C42.732 25.2427 43.6293 26.1401 43.6293 27.2429L43.6293 34.987L43.6294 34.987Z" fill="rgb(220,112,0)" fill-rule="nonzero" />
			</g>
		</g>
	</g>
</svg>
